<svg xmlns="http://www.w3.org/2000/svg" enable-background="new 0 0 25 25" viewBox="0 0 25 25" id="code-cademy">
  <path fill="#583689" d="M16.663,22.464H1.146c-0.244,0-0.572-0.108-0.755-0.269C0.136,21.958,0,21.646,0,21.323V3.641c0-0.52,0.329-0.963,0.818-1.103C0.907,2.513,1,2.5,1.092,2.5h15.565c0.104,0,0.469,0.02,0.764,0.275c0.071,0.062,0.132,0.132,0.183,0.209c0.026,0.038,0.049,0.078,0.07,0.12c0.035,0.07,0.064,0.137,0.099,0.241c0.033,0.101,0.05,0.207,0.05,0.313v17.642c0,0.301-0.109,0.583-0.308,0.793C17.325,22.317,17.003,22.464,16.663,22.464z M1.146,21.347l0,0.118L1.146,21.347L1.146,21.347z M2,20.464h13.822V4.5H2V20.464z"></path>
  <path fill="#DE002A" d="M23.589 22.5h-4.428c-.511 0-.911-.398-.911-.906v-2.187c0-.509.399-.908.909-.908h4.429c.088 0 .173.015.251.043.39.103.661.442.661.87V21.6C24.5 22.113 24.108 22.5 23.589 22.5zM19.75 21H23v-1h-3.25V21zM7.632 18.5c-1.39 0-2.429-.714-2.851-1.959C4.549 15.9 4.5 15.148 4.5 14.222c0-1.006.091-1.697.304-2.308C5.267 10.691 6.312 10 7.676 10c1.128 0 1.878.323 2.591 1.116.277.308.251.782-.057 1.059-.308.276-.782.251-1.059-.057C8.767 11.691 8.463 11.5 7.676 11.5c-.748 0-1.227.303-1.463.927C6.066 12.851 6 13.394 6 14.222c0 .665.024 1.345.197 1.822C6.417 16.692 6.884 17 7.632 17c.674 0 1.083-.188 1.561-.719.277-.308.751-.333 1.059-.055s.333.751.055 1.059C9.54 18.137 8.74 18.5 7.632 18.5z"></path>
</svg>
